<svg width="32" height="32" viewBox="0 0 32 32" fill="none" xmlns="http://www.w3.org/2000/svg">
<path d="M9.71925 8C8.8118 8 8.07617 8.73563 8.07617 9.64307V11.9214L23.9236 11.9214V9.64307C23.9236 8.73563 23.188 8 22.2806 8H21.1034V9.08446C21.1034 10.0276 20.3389 10.7921 19.3958 10.7921C18.4527 10.7921 17.6881 10.0276 17.6881 9.08446L17.6881 8L18.8177 8L18.8177 9.08446C18.8177 9.40371 19.0765 9.6625 19.3958 9.6625C19.715 9.6625 19.9738 9.40371 19.9738 9.08446V8H17.6881H14.3056V9.08446C14.3056 10.0276 13.541 10.7921 12.5979 10.7921C11.6548 10.7921 10.8903 10.0276 10.8903 9.08446L10.8903 8L12.0199 8L12.0199 9.08446C12.0199 9.40371 12.2787 9.6625 12.5979 9.6625C12.9172 9.6625 13.176 9.40371 13.176 9.08446L13.176 8H10.8903H9.71925Z" fill="#6368F2"/>
<path fill-rule="evenodd" clip-rule="evenodd" d="M23.9236 13.051L8.07617 13.051V22.1627C8.07617 23.0702 8.8118 23.8058 9.71924 23.8058H22.2806C23.188 23.8058 23.9236 23.0702 23.9236 22.1627V13.051ZM18.8444 15.9713C18.8444 15.5459 19.1892 15.2011 19.6146 15.2011H20.3334C20.7588 15.2011 21.1036 15.5459 21.1036 15.9713V16.6901C21.1036 17.1155 20.7588 17.4603 20.3334 17.4603H19.6146C19.1892 17.4603 18.8444 17.1155 18.8444 16.6901V15.9713ZM15.64 15.2011C15.2146 15.2011 14.8698 15.5459 14.8698 15.9713V16.6901C14.8698 17.1155 15.2146 17.4603 15.64 17.4603H16.3588C16.7842 17.4603 17.129 17.1155 17.129 16.6901V15.9713C17.129 15.5459 16.7842 15.2011 16.3588 15.2011H15.64ZM10.8903 16.6901V15.9713C10.8903 15.5459 11.2351 15.2011 11.6605 15.2011H12.3793C12.8047 15.2011 13.1495 15.5459 13.1495 15.9713V16.6901C13.1495 17.1155 12.8047 17.4603 12.3793 17.4603H11.6605C11.2351 17.4603 10.8903 17.1155 10.8903 16.6901ZM15.6653 19.0005C15.24 19.0005 14.8952 19.3453 14.8952 19.7707V20.4896C14.8952 20.9149 15.24 21.2597 15.6653 21.2597H16.3842C16.8096 21.2597 17.1544 20.9149 17.1544 20.4896V19.7707C17.1544 19.3453 16.8096 19.0005 16.3842 19.0005L15.6653 19.0005ZM10.8903 19.7707C10.8903 19.3453 11.2351 19.0005 11.6605 19.0005L12.3793 19.0005C12.8047 19.0005 13.1495 19.3453 13.1495 19.7707V20.4896C13.1495 20.9149 12.8047 21.2597 12.3793 21.2597H11.6605C11.2351 21.2597 10.8903 20.9149 10.8903 20.4896V19.7707Z" fill="#6368F2"/>
</svg>
